<?xml version="1.0" encoding="UTF-8"?><svg id="Layer_2" xmlns="http://www.w3.org/2000/svg" width="32" height="32" viewBox="0 0 32 32"><path d="M6.16,16.5H1.83v4.92H.18v-11.27h1.65v4.83h4.33v-4.83h1.65v11.27h-1.65v-4.92Z" style="fill:#231f20;"/><path d="M10.43,10.16h1.65v5.8h.03l4.49-5.8h1.96l-3.5,4.44,3.86,6.82h-1.96l-2.97-5.51-1.92,2.08v3.43h-1.65v-11.27Z" style="fill:#231f20;"/><path d="M19.42,10.16h1.74l1.71,8.01h.03l2.12-8.01h1.2l2.11,8.01h.03l1.72-8.01h1.74l-2.72,11.27h-1.38l-2.08-8.12h-.03l-2.09,8.12h-1.38l-2.72-11.27Z" style="fill:#231f20;"/></svg>